<svg width="88" height="88" viewBox="0 0 88 88" fill="none" xmlns="http://www.w3.org/2000/svg">
<path d="M10.2666 67.0669H77.7333" stroke="#FFC9DC" stroke-width="3" stroke-linecap="round"/>
<path d="M44 67C52.8366 67 60 59.8366 60 51C60 42.1634 52.8366 35 44 35C35.1634 35 28 42.1634 28 51C28 59.8366 35.1634 67 44 67Z" fill="#FFC9DC" fill-opacity="0.2" stroke="#FFC9DC" stroke-width="3"/>
<path d="M75 18H65C63.8954 18 63 18.8954 63 20V30C63 31.1046 63.8954 32 65 32H75C76.1046 32 77 31.1046 77 30V20C77 18.8954 76.1046 18 75 18Z" stroke="#FFC9DC" stroke-width="2"/>
<path d="M19 31C21.2091 31 23 29.2091 23 27C23 24.7909 21.2091 23 19 23C16.7909 23 15 24.7909 15 27C15 29.2091 16.7909 31 19 31Z" fill="#FFE9F1"/>
</svg>
