<svg width="88" height="88" viewBox="0 0 88 88" fill="none" xmlns="http://www.w3.org/2000/svg">
<path d="M44 68C58.3594 68 70 56.3594 70 42C70 27.6406 58.3594 16 44 16C29.6406 16 18 27.6406 18 42C18 56.3594 29.6406 68 44 68Z" fill="#6257A8" fill-opacity="0.18" stroke="#6257A8" stroke-width="3"/>
<path d="M35 53C41.0751 53 46 48.0751 46 42C46 35.9249 41.0751 31 35 31C28.9249 31 24 35.9249 24 42C24 48.0751 28.9249 53 35 53Z" fill="#6257A8" fill-opacity="0.3"/>
<path d="M72 15H60C58.8954 15 58 15.8954 58 17V29C58 30.1046 58.8954 31 60 31H72C73.1046 31 74 30.1046 74 29V17C74 15.8954 73.1046 15 72 15Z" fill="#6257A8"/>
<path d="M24 77C26.2091 77 28 75.2091 28 73C28 70.7909 26.2091 69 24 69C21.7909 69 20 70.7909 20 73C20 75.2091 21.7909 77 24 77Z" fill="#857CBB"/>
</svg>
