<svg width="1024" height="1024" viewBox="0 0 1024 1024" fill="none" xmlns="http://www.w3.org/2000/svg">
<g clip-path="url(#clip0_367_135)">
<path d="M1024 0H0V1024H1024V0Z" fill="#FBF6F0"/>
<path d="M445.381 169.556L103.837 254.712C80.2584 260.591 65.9098 284.471 71.7886 308.05L199.281 819.396C205.16 842.975 229.04 857.323 252.619 851.444L594.163 766.288C617.742 760.409 632.09 736.529 626.212 712.95L498.719 201.604C492.84 178.026 468.96 163.677 445.381 169.556Z" fill="#4A8E58"/>
<path d="M642 188H290C265.699 188 246 207.699 246 232V759C246 783.301 265.699 803 290 803H642C666.301 803 686 783.301 686 759V232C686 207.699 666.301 188 642 188Z" fill="#DEBA3A"/>
<path d="M828.163 254.712L486.619 169.556C463.04 163.677 439.16 178.025 433.281 201.604L305.788 712.95C299.91 736.529 314.258 760.409 337.837 766.288L679.381 851.444C702.96 857.323 726.84 842.974 732.718 819.396L860.211 308.05C866.09 284.471 851.742 260.591 828.163 254.712Z" fill="#B5654A"/>
<path d="M925.376 311.322L599.007 179.46C576.476 170.357 550.831 181.243 541.728 203.774L344.311 692.4C335.207 714.931 346.093 740.575 368.624 749.678L694.993 881.54C717.524 890.643 743.168 879.757 752.271 857.226L949.689 368.601C958.792 346.069 947.907 320.425 925.376 311.322Z" fill="white" stroke="#3D3530" stroke-opacity="0.2" stroke-width="2"/>
<g clip-path="url(#clip1_367_135)">
<path d="M527.704 482.886C546.41 481.065 561.858 487.306 574.049 501.61C586.24 515.914 601.688 522.156 620.394 520.335" stroke="#3D3530" stroke-width="6" stroke-linecap="round"/>
<path d="M643.19 540.166C647.799 542.028 653.044 539.802 654.906 535.193C656.768 530.584 654.542 525.339 649.933 523.477C645.324 521.615 640.079 523.842 638.217 528.45C636.355 533.059 638.581 538.304 643.19 540.166Z" fill="#3D3530"/>
<path d="M671.158 540.845C683.348 555.149 698.797 561.39 717.502 559.569C736.208 557.748 751.657 563.99 763.847 578.294" stroke="#3D3530" stroke-width="6" stroke-linecap="round"/>
</g>
</g>
<defs>
<clipPath id="clip0_367_135">
<rect width="1024" height="1024" fill="white"/>
</clipPath>
<clipPath id="clip1_367_135">
<rect width="300" height="52.1739" fill="white" transform="translate(525.848 454) rotate(22)"/>
</clipPath>
</defs>
</svg>
